<svg width="20" height="20" viewBox="0 0 20 20" fill="none" xmlns="http://www.w3.org/2000/svg">
<path d="M13.1109 11.3426C12.4085 11.3426 11.8391 12.1703 11.8391 13.1877C11.8391 14.2072 12.4085 15.0349 13.1109 15.0349C13.8133 15.0349 14.3826 14.2072 14.3826 13.1877C14.3816 12.1703 13.8133 11.3426 13.1109 11.3426ZM17.5385 6.53949C17.6842 6.16513 17.6901 4.03795 16.9173 2C16.9173 2 15.1457 2.2041 12.4652 4.13333C11.9027 3.96923 10.9509 3.88923 10.001 3.88923C9.04913 3.88923 8.09826 3.96923 7.53576 4.13333C4.85435 2.2041 3.08272 2 3.08272 2C2.31087 4.03795 2.3187 6.16513 2.4625 6.53949C1.55467 7.57333 1 8.81538 1 10.5097C1 17.88 6.83337 17.998 8.30467 17.998L10.001 18L11.6953 17.998C13.1686 17.998 19 17.88 19 10.5097C19 8.81538 18.4463 7.57333 17.5385 6.53949V6.53949ZM10.0274 17.0923H9.97261C6.28359 17.0923 3.40946 16.6318 3.40946 12.8718C3.40946 11.9703 3.71272 11.1354 4.4337 10.4421C5.63402 9.28615 7.66685 9.89744 9.97261 9.89744H10.0274C12.3332 9.89744 14.367 9.28615 15.5683 10.4421C16.2873 11.1354 16.5905 11.9703 16.5905 12.8718C16.5905 16.6318 13.7174 17.0923 10.0274 17.0923ZM6.89011 11.3426C6.18772 11.3426 5.61837 12.1703 5.61837 13.1877C5.61837 14.2072 6.18772 15.0349 6.89011 15.0349C7.59348 15.0349 8.16283 14.2072 8.16283 13.1877C8.16283 12.1703 7.59348 11.3426 6.89011 11.3426V11.3426Z" fill="black"/>
</svg>
