<svg width="20" height="20" viewBox="0 0 20 20" fill="none" xmlns="http://www.w3.org/2000/svg">
<path d="M15.1667 14.8333H12.4667V13.0333H15.1667C15.8827 13.0333 16.5695 12.7489 17.0758 12.2425C17.5822 11.7362 17.8667 11.0494 17.8667 10.3333C17.8667 9.61725 17.5822 8.9305 17.0758 8.42415C16.5695 7.9178 15.8827 7.63334 15.1667 7.63334H12.4667V5.83334H15.1667C16.3601 5.83334 17.5047 6.30744 18.3486 7.15136C19.1926 7.99527 19.6667 9.13986 19.6667 10.3333C19.6667 11.5268 19.1926 12.6714 18.3486 13.5153C17.5047 14.3592 16.3601 14.8333 15.1667 14.8333ZM8.86666 14.8333H6.16666C4.97318 14.8333 3.82859 14.3592 2.98468 13.5153C2.14076 12.6714 1.66666 11.5268 1.66666 10.3333C1.66666 9.13986 2.14076 7.99527 2.98468 7.15136C3.82859 6.30744 4.97318 5.83334 6.16666 5.83334H8.86666V7.63334H6.16666C5.45057 7.63334 4.76382 7.9178 4.25747 8.42415C3.75112 8.9305 3.46666 9.61725 3.46666 10.3333C3.46666 11.0494 3.75112 11.7362 4.25747 12.2425C4.76382 12.7489 5.45057 13.0333 6.16666 13.0333H8.86666V14.8333ZM15.1667 11.2333H6.16666V9.43334H15.1667V11.2333Z" fill="black"/>
</svg>
