<svg width="20" height="20" viewBox="0 0 20 20" fill="none" xmlns="http://www.w3.org/2000/svg">
<path d="M19 13.6V17.2C19 17.6774 18.8104 18.1352 18.4728 18.4728C18.1352 18.8104 17.6774 19 17.2 19H13.6V17.2C13.6 16.7226 13.4104 16.2648 13.0728 15.9272C12.7352 15.5896 12.2774 15.4 11.8 15.4C11.3226 15.4 10.8648 15.5896 10.5272 15.9272C10.1896 16.2648 10 16.7226 10 17.2V19H6.4C5.92261 19 5.46477 18.8104 5.12721 18.4728C4.78964 18.1352 4.6 17.6774 4.6 17.2V13.6H2.8C2.32261 13.6 1.86477 13.4104 1.52721 13.0728C1.18964 12.7352 1 12.2774 1 11.8C1 11.3226 1.18964 10.8648 1.52721 10.5272C1.86477 10.1896 2.32261 10 2.8 10H4.6V6.4C4.6 5.41 5.41 4.6 6.4 4.6H10V2.8C10 2.32261 10.1896 1.86477 10.5272 1.52721C10.8648 1.18964 11.3226 1 11.8 1C12.2774 1 12.7352 1.18964 13.0728 1.52721C13.4104 1.86477 13.6 2.32261 13.6 2.8V4.6H17.2C17.6774 4.6 18.1352 4.78964 18.4728 5.12721C18.8104 5.46477 19 5.92261 19 6.4V10H17.2C16.7226 10 16.2648 10.1896 15.9272 10.5272C15.5896 10.8648 15.4 11.3226 15.4 11.8C15.4 12.2774 15.5896 12.7352 15.9272 13.0728C16.2648 13.4104 16.7226 13.6 17.2 13.6H19Z" fill="black"/>
</svg>
