<svg width="20" height="20" viewBox="0 0 20 20" fill="none" xmlns="http://www.w3.org/2000/svg">
<path d="M19 3.77564C18.5067 4.52925 17.8826 5.20028 17.1577 5.7371C17.1678 5.89195 17.1678 6.05712 17.1678 6.2223C17.1678 11.2292 13.453 17 6.66779 17C4.58389 17 2.64094 16.3703 1 15.2966C1.29195 15.3276 1.58389 15.3482 1.88591 15.3482C3.61745 15.3482 5.20805 14.7392 6.46644 13.7275C5.69665 13.7111 4.95106 13.4487 4.3338 12.9767C3.71654 12.5047 3.25844 11.8469 3.02349 11.095C3.24497 11.1363 3.47651 11.1672 3.71812 11.1672C4.05034 11.1672 4.38255 11.1156 4.68456 11.033C3.8496 10.8573 3.09928 10.3916 2.56012 9.71462C2.02096 9.03762 1.72595 8.19067 1.72483 7.31659V7.27529C2.22819 7.55403 2.79195 7.72953 3.39597 7.75017C2.89041 7.40241 2.4762 6.93225 2.18999 6.38127C1.90378 5.83028 1.75439 5.21547 1.75503 4.59119C1.75503 3.89952 1.93624 3.24914 2.25839 2.69167C4.08054 4.98348 6.79866 6.49071 9.86913 6.64556C9.80872 6.36683 9.76846 6.07777 9.76846 5.77839C9.77112 4.77535 10.1616 3.81433 10.8541 3.10604C11.5467 2.39775 12.485 2 13.4631 2C14.5302 2 15.4866 2.45423 16.1611 3.19752C16.9966 3.02202 17.7919 2.71232 18.5067 2.27873C18.2248 3.15623 17.6409 3.89952 16.8758 4.36407C17.6093 4.28186 18.3259 4.08335 19 3.77564V3.77564Z" fill="black"/>
</svg>
