<svg width="20" height="20" viewBox="0 0 20 20" fill="none" xmlns="http://www.w3.org/2000/svg">
<path d="M18.91 5.84C17.904 11.613 12.285 16.5 10.595 17.617C8.905 18.732 7.362 17.17 6.803 15.986C6.162 14.639 4.244 7.33 3.741 6.725C3.238 6.119 1.731 7.33 1.731 7.33L1 6.354C1 6.354 4.061 2.629 6.391 2.163C8.861 1.67 8.857 6.027 9.451 8.445C10.025 10.787 10.412 12.125 10.914 12.125C11.416 12.125 12.376 10.82 13.426 8.82C14.479 6.816 13.381 5.048 11.325 6.306C12.148 1.279 19.916 0.0700004 18.91 5.84V5.84Z" fill="black"/>
</svg>
